<?xml version="1.0" encoding="UTF-8" standalone="no"?>
<svg
   width="619.41968"
   zoomAndPan="magnify"
   viewBox="0 0 464.56476 107.12497"
   height="142.8333"
   preserveAspectRatio="xMidYMid"
   version="1.0"
   id="svg4952"
   sodipodi:docname="blazo-poppins.svg"
   inkscape:version="1.2.2 (732a01da63, 2022-12-09)"
   xmlns:inkscape="http://www.inkscape.org/namespaces/inkscape"
   xmlns:sodipodi="http://sodipodi.sourceforge.net/DTD/sodipodi-0.dtd"
   xmlns="http://www.w3.org/2000/svg"
   xmlns:svg="http://www.w3.org/2000/svg">
  <sodipodi:namedview
     id="namedview5109"
     pagecolor="#ffffff"
     bordercolor="#000000"
     borderopacity="0.25"
     inkscape:showpageshadow="2"
     inkscape:pageopacity="0.0"
     inkscape:pagecheckerboard="0"
     inkscape:deskcolor="#d1d1d1"
     showgrid="false"
     inkscape:zoom="1.8162161"
     inkscape:cx="319.62055"
     inkscape:cy="71.577385"
     inkscape:window-width="1920"
     inkscape:window-height="1057"
     inkscape:window-x="-8"
     inkscape:window-y="-8"
     inkscape:window-maximized="1"
     inkscape:current-layer="svg4952" />
  <defs
     id="defs4880" />
  <g
     fill="#f5f5f5"
     fill-opacity="1"
     id="g4888"
     transform="translate(-67.534737,-243.04456)"
     style="fill:#f6f1f1;fill-opacity:1">
    <g
       transform="translate(60.03474,332.98206)"
       id="g4886"
       style="fill:#f6f1f1;fill-opacity:1">
      <g
         id="g4884"
         style="fill:#f6f1f1;fill-opacity:1">
        <path
           d="M 28.203125,-12.53125 7.5,-33.8125 28.203125,-55.078125 h 16.71875 L 24.21875,-33.8125 44.921875,-12.53125 Z m 0,0"
           id="path4882"
           style="fill:#f6f1f1;fill-opacity:1" />
      </g>
    </g>
  </g>
  <g
     fill="#f5f5f5"
     fill-opacity="1"
     id="g4896"
     transform="translate(-67.534737,-243.04456)"
     style="fill:#f6f1f1;fill-opacity:1">
    <g
       transform="translate(115.49273,332.98206)"
       id="g4894"
       style="fill:#f6f1f1;fill-opacity:1">
      <g
         id="g4892"
         style="fill:#f6f1f1;fill-opacity:1">
        <path
           d="m 44.15625,-34 c 3.738281,0.699219 6.8125,2.570312 9.21875,5.609375 2.40625,3.03125 3.609375,6.511719 3.609375,10.4375 0,3.554687 -0.871094,6.671875 -2.609375,9.359375 -1.742188,2.6875 -4.261719,4.792969 -7.5625,6.3125 C 43.519531,-0.757812 39.628906,0 35.140625,0 H 6.546875 V -66.28125 H 33.90625 c 4.488281,0 8.363281,0.730469 11.625,2.1875 3.257812,1.449219 5.726562,3.476562 7.40625,6.078125 1.6875,2.59375 2.53125,5.539063 2.53125,8.828125 0,3.855469 -1.03125,7.085938 -3.09375,9.6875 -2.0625,2.59375 -4.804688,4.429688 -8.21875,5.5 z m -24.3125,-4.9375 H 32 c 3.164062,0 5.601562,-0.707031 7.3125,-2.125 1.707031,-1.425781 2.5625,-3.472656 2.5625,-6.140625 0,-2.65625 -0.855469,-4.710937 -2.5625,-6.171875 C 37.601562,-54.832031 35.164062,-55.5625 32,-55.5625 H 19.84375 Z m 13.390625,28.109375 c 3.226563,0 5.742187,-0.757813 7.546875,-2.28125 1.8125,-1.519531 2.71875,-3.671875 2.71875,-6.453125 0,-2.851562 -0.953125,-5.085938 -2.859375,-6.703125 -1.898437,-1.613281 -4.460937,-2.421875 -7.6875,-2.421875 H 19.84375 v 17.859375 z m 0,0"
           id="path4890"
           style="fill:#f6f1f1;fill-opacity:1" />
      </g>
    </g>
  </g>
  <g
     fill="#f5f5f5"
     fill-opacity="1"
     id="g4904"
     transform="translate(-67.534737,-243.04456)"
     style="fill:#f6f1f1;fill-opacity:1">
    <g
       transform="translate(176.5535,332.98206)"
       id="g4902"
       style="fill:#f6f1f1;fill-opacity:1">
      <g
         id="g4900"
         style="fill:#f6f1f1;fill-opacity:1">
        <path
           d="M 19.84375,-10.546875 H 41.6875 V 0 H 6.546875 V -66.28125 H 19.84375 Z m 0,0"
           id="path4898"
           style="fill:#f6f1f1;fill-opacity:1" />
      </g>
    </g>
  </g>
  <g
     fill="#f5f5f5"
     fill-opacity="1"
     id="g4912"
     transform="translate(-67.534737,-243.04456)"
     style="fill:#f6f1f1;fill-opacity:1">
    <g
       transform="translate(220.14121,332.98206)"
       id="g4910"
       style="fill:#f6f1f1;fill-opacity:1">
      <g
         id="g4908"
         style="fill:#f6f1f1;fill-opacity:1">
        <path
           d="M 47.203125,-12.625 H 20.796875 L 16.421875,0 H 2.46875 L 26.3125,-66.390625 H 41.78125 L 65.625,0 H 51.5625 Z M 43.59375,-23.265625 34,-51 24.40625,-23.265625 Z m 0,0"
           id="path4906"
           style="fill:#f6f1f1;fill-opacity:1" />
      </g>
    </g>
  </g>
  <g
     fill="#f5f5f5"
     fill-opacity="1"
     id="g4920"
     transform="translate(-67.534737,-243.04456)"
     style="fill:#f6f1f1;fill-opacity:1">
    <g
       transform="translate(288.13425,332.98206)"
       id="g4918"
       style="fill:#f6f1f1;fill-opacity:1">
      <g
         id="g4916"
         style="fill:#f6f1f1;fill-opacity:1">
        <path
           d="m 20.140625,-11.203125 h 29.8125 V 0 H 4.75 V -10.25 L 34.375,-55.078125 H 4.75 V -66.28125 h 45.203125 v 10.25 z m 0,0"
           id="path4914"
           style="fill:#f6f1f1;fill-opacity:1" />
      </g>
    </g>
  </g>
  <g
     fill="#f5f5f5"
     fill-opacity="1"
     id="g4928"
     transform="translate(-67.534737,-243.04456)"
     style="fill:#f6f1f1;fill-opacity:1">
    <g
       transform="translate(342.83253,332.98206)"
       id="g4926"
       style="fill:#f6f1f1;fill-opacity:1">
      <g
         id="g4924"
         style="fill:#f6f1f1;fill-opacity:1">
        <path
           d="m 37.328125,0.671875 c -6.210937,0 -11.914063,-1.457031 -17.109375,-4.375 C 15.03125,-6.617188 10.914062,-10.65625 7.875,-15.8125 4.84375,-20.96875 3.328125,-26.804688 3.328125,-33.328125 3.328125,-39.785156 4.84375,-45.59375 7.875,-50.75 c 3.039062,-5.164062 7.15625,-9.203125 12.34375,-12.109375 5.195312,-2.914063 10.898438,-4.375 17.109375,-4.375 6.257813,0 11.96875,1.460937 17.125,4.375 5.164063,2.90625 9.253906,6.945313 12.265625,12.109375 3.007812,5.15625 4.515625,10.964844 4.515625,17.421875 0,6.523437 -1.507813,12.359375 -4.515625,17.515625 -3.011719,5.15625 -7.117188,9.195312 -12.3125,12.109375 -5.1875,2.917969 -10.882812,4.375 -17.078125,4.375 z m 0,-11.875 c 3.988281,0 7.5,-0.898437 10.53125,-2.703125 3.039063,-1.8125 5.414063,-4.394531 7.125,-7.75 1.707031,-3.351562 2.5625,-7.242188 2.5625,-11.671875 0,-4.4375 -0.855469,-8.316406 -2.5625,-11.640625 -1.710937,-3.320312 -4.085937,-5.867188 -7.125,-7.640625 -3.03125,-1.769531 -6.542969,-2.65625 -10.53125,-2.65625 -3.992187,0 -7.523437,0.886719 -10.59375,2.65625 -3.074219,1.773437 -5.464844,4.320313 -7.171875,7.640625 C 17.851562,-41.644531 17,-37.765625 17,-33.328125 c 0,4.429687 0.851562,8.320313 2.5625,11.671875 1.707031,3.355469 4.097656,5.9375 7.171875,7.75 3.070313,1.804688 6.601563,2.703125 10.59375,2.703125 z m 0,0"
           id="path4922"
           style="fill:#f6f1f1;fill-opacity:1" />
      </g>
    </g>
  </g>
  <g
     fill="#f5f5f5"
     fill-opacity="1"
     id="g4942"
     transform="translate(-67.534737,-243.04456)"
     style="fill:#f6f1f1;fill-opacity:1">
    <g
       transform="translate(439.979,332.98206)"
       id="g4940"
       style="fill:#f6f1f1;fill-opacity:1">
      <g
         id="g4938"
         style="fill:#f6f1f1;fill-opacity:1">
        <path
           d="M 42.171875,-89.9375 16.53125,17.1875 H 3.515625 L 29.15625,-89.9375 Z m 0,0"
           id="path4936"
           style="fill:#f6f1f1;fill-opacity:1" />
      </g>
    </g>
  </g>
  <g
     fill="#f5f5f5"
     fill-opacity="1"
     id="g4950"
     transform="translate(-67.534737,-243.04456)"
     style="fill:#f6f1f1;fill-opacity:1">
    <g
       transform="translate(486.1307,332.98206)"
       id="g4948"
       style="fill:#f6f1f1;fill-opacity:1">
      <g
         id="g4946"
         style="fill:#f6f1f1;fill-opacity:1">
        <path
           d="m 8.453125,-55.078125 h 16.8125 L 45.96875,-33.8125 25.265625,-12.53125 H 8.453125 L 29.25,-33.8125 Z m 0,0"
           id="path4944"
           style="fill:#f6f1f1;fill-opacity:1" />
      </g>
    </g>
  </g>
</svg>
