<svg xmlns="http://www.w3.org/2000/svg" xmlns:xlink="http://www.w3.org/1999/xlink" width="800" zoomAndPan="magnify" viewBox="0 0 600 599.999999" height="800" preserveAspectRatio="xMidYMid meet" version="1.0"><defs><g/></defs><g fill="#f5f5f5" fill-opacity="1"><g transform="translate(60.036115, 315.56419)"><g><path d="M 16.140625 -30.40625 L 47.8125 -49.96875 L 47.8125 -36.78125 L 27.171875 -25.15625 L 47.8125 -12.4375 L 47.8125 0.703125 L 16.140625 -20.359375 Z M 16.140625 -30.40625 "/></g></g></g><g fill="#f5f5f5" fill-opacity="1"><g transform="translate(124.021722, 315.56419)"><g><path d="M 47.5 -4.5625 C 45.207031 -2.738281 42.226562 -1.328125 38.5625 -0.328125 C 34.90625 0.671875 30.410156 1.171875 25.078125 1.171875 C 19.742188 1.171875 14.078125 0.6875 8.078125 -0.28125 L 8.078125 -62.125 C 14.140625 -63.09375 19.398438 -63.578125 23.859375 -63.578125 C 28.316406 -63.578125 31.972656 -63.15625 34.828125 -62.3125 C 37.691406 -61.46875 40.035156 -60.328125 41.859375 -58.890625 C 45.421875 -56.097656 47.203125 -52.488281 47.203125 -48.0625 C 47.203125 -43.644531 45.59375 -39.976562 42.375 -37.0625 C 46.1875 -35.875 49.140625 -33.625 51.234375 -30.3125 C 53.140625 -27.34375 54.09375 -24.050781 54.09375 -20.4375 C 54.09375 -16.820312 53.566406 -13.726562 52.515625 -11.15625 C 51.472656 -8.59375 49.800781 -6.394531 47.5 -4.5625 Z M 20.5 -38.796875 C 21.8125 -38.578125 23.453125 -38.46875 25.421875 -38.46875 C 27.398438 -38.46875 29.019531 -38.722656 30.28125 -39.234375 C 31.550781 -39.753906 32.53125 -40.410156 33.21875 -41.203125 C 34.34375 -42.484375 34.90625 -44.265625 34.90625 -46.546875 C 34.90625 -51.328125 32.09375 -53.71875 26.46875 -53.71875 C 24.082031 -53.71875 22.09375 -53.625 20.5 -53.4375 Z M 27.453125 -28.765625 C 24.816406 -28.765625 22.5 -28.59375 20.5 -28.25 L 20.5 -9.8125 C 22.6875 -9.25 24.984375 -8.96875 27.390625 -8.96875 C 29.804688 -8.96875 31.925781 -9.253906 33.75 -9.828125 C 35.582031 -10.410156 37.125 -11.203125 38.375 -12.203125 C 40.914062 -14.265625 42.1875 -16.890625 42.1875 -20.078125 C 42.1875 -25.867188 37.273438 -28.765625 27.453125 -28.765625 Z M 27.453125 -28.765625 "/></g></g></g><g fill="#f5f5f5" fill-opacity="1"><g transform="translate(180.173315, 315.56419)"><g><path d="M 17.21875 0 C 12.625 0 9.578125 0.09375 8.078125 0.28125 L 8.078125 -62.6875 C 8.828125 -62.5 10.378906 -62.40625 12.734375 -62.40625 C 15.097656 -62.40625 17.84375 -62.46875 20.96875 -62.59375 L 20.96875 -11.265625 L 30.6875 -11.265625 C 33.5 -11.265625 35.75 -11.359375 37.4375 -11.546875 C 37.21875 -4.222656 37.109375 -0.421875 37.109375 -0.140625 L 37.109375 0.328125 C 34.046875 0.109375 28.898438 0 21.671875 0 Z M 17.21875 0 "/></g></g></g><g fill="#f5f5f5" fill-opacity="1"><g transform="translate(220.281596, 315.56419)"><g><path d="M 12.625 0.375 C 9.9375 0.125 6.789062 0 3.1875 0 L -0.515625 0 L 19.890625 -57.203125 C 20.796875 -59.765625 21.25 -61.253906 21.25 -61.671875 C 21.25 -62.097656 21.234375 -62.359375 21.203125 -62.453125 L 21.25 -62.546875 C 23.289062 -62.453125 25.453125 -62.40625 27.734375 -62.40625 C 29.609375 -62.40625 31.859375 -62.4375 34.484375 -62.5 L 34.53125 -62.40625 C 34.46875 -62.28125 34.4375 -62.109375 34.4375 -61.890625 C 34.4375 -61.296875 34.90625 -59.71875 35.84375 -57.15625 L 56.6875 0.140625 C 56.050781 0.109375 55.3125 0.09375 54.46875 0.09375 C 54.46875 0.09375 53.65625 0.0625 52.03125 0 C 51.25 0 50.546875 0 49.921875 0 L 42.65625 0 L 38.234375 -13.515625 L 17.03125 -13.515625 Z M 34.578125 -24.78125 L 27.5 -46.59375 L 20.59375 -24.78125 Z M 34.578125 -24.78125 "/></g></g></g><g fill="#f5f5f5" fill-opacity="1"><g transform="translate(276.433189, 315.56419)"><g><path d="M 6.703125 -58.1875 C 6.703125 -59.21875 6.65625 -60.625 6.5625 -62.40625 L 51.046875 -62.40625 L 23.734375 -11.265625 L 40.78125 -11.265625 C 45.21875 -11.265625 47.832031 -11.394531 48.625 -11.65625 C 49.425781 -11.925781 50.0625 -12.171875 50.53125 -12.390625 L 50.53125 0.703125 C 49.1875 0.578125 48.078125 0.46875 47.203125 0.375 C 46.328125 0.28125 45.40625 0.203125 44.4375 0.140625 C 42.96875 0.046875 40.117188 0 35.890625 0 L 4.3125 0 L 32.5625 -51.140625 L 17.78125 -51.140625 C 11.6875 -51.140625 7.804688 -50.8125 6.140625 -50.15625 C 6.515625 -51.71875 6.703125 -53.925781 6.703125 -56.78125 Z M 6.703125 -58.1875 "/></g></g></g><g fill="#f5f5f5" fill-opacity="1"><g transform="translate(332.209499, 315.56419)"><g><path d="M 13.1875 -7.40625 C 10.34375 -10.132812 8.097656 -13.40625 6.453125 -17.21875 C 4.804688 -21.03125 3.984375 -25.210938 3.984375 -29.765625 C 3.984375 -34.316406 4.75 -38.625 6.28125 -42.6875 C 7.820312 -46.757812 10.015625 -50.34375 12.859375 -53.4375 C 15.703125 -56.539062 19.140625 -59.003906 23.171875 -60.828125 C 27.210938 -62.660156 31.734375 -63.578125 36.734375 -63.578125 C 45.367188 -63.578125 52.644531 -60.851562 58.5625 -55.40625 C 64.875 -49.59375 68.03125 -41.742188 68.03125 -31.859375 C 68.03125 -22.285156 64.78125 -14.320312 58.28125 -7.96875 C 54.269531 -4.0625 49.5 -1.375 43.96875 0.09375 C 41.238281 0.8125 38.050781 1.171875 34.40625 1.171875 C 30.769531 1.171875 27.035156 0.421875 23.203125 -1.078125 C 19.367188 -2.578125 16.03125 -4.6875 13.1875 -7.40625 Z M 17.03125 -30.40625 C 17.03125 -27.5 17.515625 -24.820312 18.484375 -22.375 C 19.453125 -19.9375 20.796875 -17.84375 22.515625 -16.09375 C 26.179688 -12.40625 30.890625 -10.5625 36.640625 -10.5625 C 42.117188 -10.5625 46.515625 -12.328125 49.828125 -15.859375 C 53.203125 -19.515625 54.890625 -24.503906 54.890625 -30.828125 C 54.890625 -36.765625 53.28125 -41.722656 50.0625 -45.703125 C 46.59375 -49.953125 41.835938 -52.078125 35.796875 -52.078125 C 29.953125 -52.078125 25.304688 -49.921875 21.859375 -45.609375 C 18.640625 -41.566406 17.03125 -36.5 17.03125 -30.40625 Z M 17.03125 -30.40625 "/></g></g></g><g fill="#f5f5f5" fill-opacity="1"><g transform="translate(404.216764, 315.56419)"><g/></g></g><g fill="#f5f5f5" fill-opacity="1"><g transform="translate(436.068837, 315.56419)"><g><path d="M 28.109375 -71.78125 L 40.125 -71.78125 L 12.015625 7.96875 L 0 7.96875 Z M 28.109375 -71.78125 "/></g></g></g><g fill="#f5f5f5" fill-opacity="1"><g transform="translate(476.177118, 315.56419)"><g><path d="M 16.046875 -12.4375 L 36.640625 -25.15625 L 16.046875 -36.78125 L 16.046875 -49.96875 L 47.71875 -30.40625 L 47.71875 -20.359375 L 16.046875 0.703125 Z M 16.046875 -12.4375 "/></g></g></g><g fill="#555555" fill-opacity="1"><g transform="translate(188.423834, 354.495037)"><g><path d="M 6.90625 -23.71875 C 8.757812 -23.71875 10.117188 -23.191406 10.984375 -22.140625 C 11.859375 -21.097656 12.296875 -19.660156 12.296875 -17.828125 L 12.296875 -5.859375 C 12.296875 -4.035156 11.859375 -2.601562 10.984375 -1.5625 C 10.117188 -0.519531 8.757812 0 6.90625 0 L 1.359375 0 L 1.359375 -23.71875 Z M 6.875 -2.40625 C 7.820312 -2.40625 8.523438 -2.691406 8.984375 -3.265625 C 9.453125 -3.847656 9.6875 -4.679688 9.6875 -5.765625 L 9.6875 -17.96875 C 9.6875 -19.050781 9.453125 -19.878906 8.984375 -20.453125 C 8.523438 -21.023438 7.8125 -21.3125 6.84375 -21.3125 L 4 -21.3125 L 4 -2.40625 Z M 6.875 -2.40625 "/></g></g></g><g fill="#555555" fill-opacity="1"><g transform="translate(215.400603, 354.495037)"><g><path d="M 9.796875 -13.21875 L 9.796875 -10.84375 L 4 -10.84375 L 4 -2.40625 L 11.109375 -2.40625 L 11.109375 0 L 1.359375 0 L 1.359375 -23.71875 L 11.109375 -23.71875 L 11.109375 -21.3125 L 4 -21.3125 L 4 -13.21875 Z M 9.796875 -13.21875 "/></g></g></g><g fill="#555555" fill-opacity="1"><g transform="translate(241.157775, 354.495037)"><g><path d="M 3.359375 -23.71875 L 7.21875 -3.078125 L 11.046875 -23.71875 L 13.484375 -23.71875 L 9.046875 0 L 5.15625 0 L 0.671875 -23.71875 Z M 3.359375 -23.71875 "/></g></g></g><g fill="#555555" fill-opacity="1"><g transform="translate(268.879884, 354.495037)"><g><path d="M 9.796875 -13.21875 L 9.796875 -10.84375 L 4 -10.84375 L 4 -2.40625 L 11.109375 -2.40625 L 11.109375 0 L 1.359375 0 L 1.359375 -23.71875 L 11.109375 -23.71875 L 11.109375 -21.3125 L 4 -21.3125 L 4 -13.21875 Z M 9.796875 -13.21875 "/></g></g></g><g fill="#555555" fill-opacity="1"><g transform="translate(294.637061, 354.495037)"><g><path d="M 1.359375 0 L 1.359375 -23.71875 L 4 -23.71875 L 4 -2.40625 L 10.78125 -2.40625 L 10.78125 0 Z M 1.359375 0 "/></g></g></g><g fill="#555555" fill-opacity="1"><g transform="translate(319.615034, 354.495037)"><g><path d="M 1.15625 -18 C 1.15625 -19.820312 1.597656 -21.269531 2.484375 -22.34375 C 3.378906 -23.414062 4.742188 -23.953125 6.578125 -23.953125 C 8.398438 -23.953125 9.765625 -23.414062 10.671875 -22.34375 C 11.578125 -21.269531 12.03125 -19.820312 12.03125 -18 L 12.03125 -5.734375 C 12.03125 -3.921875 11.578125 -2.472656 10.671875 -1.390625 C 9.765625 -0.304688 8.398438 0.234375 6.578125 0.234375 C 4.742188 0.234375 3.378906 -0.304688 2.484375 -1.390625 C 1.597656 -2.472656 1.15625 -3.921875 1.15625 -5.734375 Z M 3.765625 -5.59375 C 3.765625 -4.507812 3.992188 -3.664062 4.453125 -3.0625 C 4.921875 -2.46875 5.628906 -2.171875 6.578125 -2.171875 C 7.546875 -2.171875 8.253906 -2.46875 8.703125 -3.0625 C 9.160156 -3.664062 9.390625 -4.507812 9.390625 -5.59375 L 9.390625 -18.125 C 9.390625 -19.21875 9.160156 -20.0625 8.703125 -20.65625 C 8.253906 -21.25 7.546875 -21.546875 6.578125 -21.546875 C 5.628906 -21.546875 4.921875 -21.25 4.453125 -20.65625 C 3.992188 -20.0625 3.765625 -19.21875 3.765625 -18.125 Z M 3.765625 -5.59375 "/></g></g></g><g fill="#555555" fill-opacity="1"><g transform="translate(346.354681, 354.495037)"><g><path d="M 6.546875 -23.71875 C 8.421875 -23.71875 9.773438 -23.203125 10.609375 -22.171875 C 11.441406 -21.148438 11.859375 -19.734375 11.859375 -17.921875 L 11.859375 -15.078125 C 11.859375 -13.179688 11.410156 -11.753906 10.515625 -10.796875 C 9.628906 -9.835938 8.238281 -9.359375 6.34375 -9.359375 L 4 -9.359375 L 4 0 L 1.359375 0 L 1.359375 -23.71875 Z M 6.34375 -11.71875 C 7.332031 -11.71875 8.0625 -11.960938 8.53125 -12.453125 C 9.007812 -12.941406 9.25 -13.757812 9.25 -14.90625 L 9.25 -18.0625 C 9.25 -19.144531 9.039062 -19.957031 8.625 -20.5 C 8.207031 -21.039062 7.515625 -21.3125 6.546875 -21.3125 L 4 -21.3125 L 4 -11.71875 Z M 6.34375 -11.71875 "/></g></g></g><g fill="#555555" fill-opacity="1"><g transform="translate(372.484495, 354.495037)"><g><path d="M 9.796875 -13.21875 L 9.796875 -10.84375 L 4 -10.84375 L 4 -2.40625 L 11.109375 -2.40625 L 11.109375 0 L 1.359375 0 L 1.359375 -23.71875 L 11.109375 -23.71875 L 11.109375 -21.3125 L 4 -21.3125 L 4 -13.21875 Z M 9.796875 -13.21875 "/></g></g></g><g fill="#555555" fill-opacity="1"><g transform="translate(398.241672, 354.495037)"><g><path d="M 6.640625 -23.71875 C 8.515625 -23.71875 9.863281 -23.253906 10.6875 -22.328125 C 11.507812 -21.398438 11.921875 -20.054688 11.921875 -18.296875 L 11.921875 -16.375 C 11.921875 -15.0625 11.679688 -14 11.203125 -13.1875 C 10.734375 -12.375 9.992188 -11.804688 8.984375 -11.484375 C 10.066406 -11.171875 10.832031 -10.585938 11.28125 -9.734375 C 11.738281 -8.890625 11.96875 -7.828125 11.96875 -6.546875 L 11.96875 -2.84375 C 11.96875 -2.320312 11.988281 -1.816406 12.03125 -1.328125 C 12.070312 -0.847656 12.207031 -0.40625 12.4375 0 L 9.765625 0 C 9.597656 -0.34375 9.476562 -0.707031 9.40625 -1.09375 C 9.34375 -1.488281 9.3125 -2.082031 9.3125 -2.875 L 9.3125 -6.609375 C 9.3125 -7.941406 9.015625 -8.863281 8.421875 -9.375 C 7.828125 -9.882812 6.972656 -10.140625 5.859375 -10.140625 L 4 -10.140625 L 4 0 L 1.359375 0 L 1.359375 -23.71875 Z M 5.96875 -12.546875 C 7.03125 -12.546875 7.851562 -12.765625 8.4375 -13.203125 C 9.019531 -13.640625 9.3125 -14.503906 9.3125 -15.796875 L 9.3125 -18.0625 C 9.3125 -19.144531 9.101562 -19.957031 8.6875 -20.5 C 8.269531 -21.039062 7.566406 -21.3125 6.578125 -21.3125 L 4 -21.3125 L 4 -12.546875 Z M 5.96875 -12.546875 "/></g></g></g></svg>